<?xml version='1.0' encoding='iso-8859-1'?>
<svg version="1.1" xmlns="http://www.w3.org/2000/svg" viewBox="0 0 462.974 462.974" xmlns:xlink="http://www.w3.org/1999/xlink" enable-background="new 0 0 462.974 462.974">
  <g>
    <path d="m333.171,166.387c21.089-6.853 38.021-15.961 48.289-26.229 21.408-21.408 21.945-55.705 1.197-76.454-8.919-8.919-20.784-14.205-33.417-15.07-0.866-12.634-6.151-24.499-15.07-33.417-20.749-20.749-55.046-20.212-76.454,1.197-10.268,10.268-19.376,27.2-26.229,48.289-6.853-21.089-15.961-38.021-26.229-48.289-21.408-21.408-55.706-21.945-76.454-1.197-8.919,8.919-14.205,20.784-15.07,33.417-12.632,0.866-24.499,6.151-33.417,15.07-20.748,20.749-20.211,55.045 1.197,76.454 10.268,10.268 27.2,19.376 48.289,26.228-21.089,6.853-38.021,15.961-48.289,26.229-21.408,21.408-21.945,55.705-1.197,76.454 8.918,8.918 20.784,14.204 33.417,15.07 0.865,12.633 6.151,24.498 15.07,33.417 20.748,20.75 55.045,20.212 76.454-1.197 6.48-6.48 12.496-15.619 17.777-26.776-1.054,52.578-0.624,118.128 17.391,168.421 0.723,2.02 2.277,3.632 4.268,4.431 0.898,0.36 1.846,0.54 2.793,0.54 1.151,0 2.301-0.265 3.354-0.792l32-16c1.946-0.973 3.374-2.743 3.912-4.851 0.539-2.108 0.136-4.346-1.104-6.133-22.706-32.723-36.597-90.135-42.811-139.846 4.547,8.556 9.555,15.683 14.878,21.006 10.334,10.334 23.95,16.17 38.338,16.432 0.338,0.006 0.673,0.009 1.01,0.009 14.109,0 27.253-5.391 37.105-15.244 8.919-8.919 14.205-20.784 15.07-33.417 12.632-0.866 24.499-6.151 33.417-15.07 20.748-20.749 20.211-55.046-1.198-76.454-10.267-10.268-27.199-19.376-48.287-26.228zm-81.305,278.512c-8.314-26.839-11.962-57.924-13.378-88.714 6.15,25.828 15.771,56.552 30.153,80.326l-16.775,8.388zm120.184-186.437c-7.696,7.695-18.525,11.588-29.731,10.671-2.188-0.178-4.356,0.615-5.913,2.172-1.557,1.557-2.351,3.719-2.172,5.913 0.914,11.199-2.976,22.035-10.671,29.731-7.181,7.182-16.847,11.05-27.236,10.843-10.485-0.19-20.431-4.467-28.004-12.041-12.345-12.344-23.364-38.2-29.478-69.165-0.694-3.514-3.776-6.047-7.358-6.047s-6.664,2.533-7.358,6.047c-6.113,30.964-17.132,56.82-29.477,69.165-7.574,7.574-17.52,11.85-28.004,12.04-10.384,0.196-20.055-3.662-27.236-10.843-7.695-7.695-11.585-18.532-10.671-29.73 0.179-2.194-0.615-4.356-2.172-5.913-1.556-1.557-3.717-2.352-5.913-2.172-11.2,0.914-22.037-2.977-29.731-10.671-14.899-14.9-14.362-39.681 1.197-55.241 12.345-12.345 38.201-23.364 69.166-29.478 3.514-0.694 6.047-3.776 6.047-7.358s-2.533-6.664-6.047-7.358c-30.965-6.113-56.821-17.132-69.166-29.477-15.56-15.56-16.097-40.341-1.197-55.241 7.696-7.695 18.53-11.584 29.731-10.671 2.192,0.179 4.356-0.615 5.913-2.172 1.557-1.557 2.351-3.719 2.172-5.913-0.914-11.199 2.976-22.035 10.671-29.731 14.9-14.899 39.68-14.362 55.241,1.197 12.344,12.344 23.364,38.201 29.477,69.166 0.694,3.514 3.776,6.047 7.358,6.047s6.664-2.533 7.358-6.047c6.113-30.965 17.133-56.821 29.477-69.166 15.56-15.56 40.34-16.097 55.241-1.197 7.695,7.695 11.584,18.532 10.671,29.731-0.179,2.194 0.615,4.356 2.172,5.913 1.557,1.556 3.715,2.349 5.913,2.172 11.201-0.915 22.035,2.976 29.731,10.671 14.899,14.9 14.362,39.681-1.197,55.241-12.345,12.344-38.201,23.364-69.165,29.477-3.514,0.694-6.047,3.776-6.047,7.358s2.533,6.664 6.047,7.358c30.964,6.113 56.82,17.132 69.165,29.477 15.558,15.561 16.095,40.342 1.196,55.242z"/>
    <path d="m242.093,167.474l74.697-74.697c2.929-2.929 2.929-7.678 0-10.606-2.929-2.929-7.678-2.929-10.606,0l-74.697,74.697-74.697-74.697c-2.929-2.929-7.678-2.929-10.606,0-2.929,2.929-2.929,7.678 0,10.606l74.697,74.697-74.697,74.697c-2.929,2.929-2.929,7.678 0,10.606 1.464,1.464 3.384,2.197 5.303,2.197s3.839-0.732 5.303-2.197l74.697-74.697 74.697,74.697c1.464,1.464 3.384,2.197 5.303,2.197s3.839-0.732 5.303-2.197c2.929-2.929 2.929-7.678 0-10.606l-74.697-74.697z"/>
  </g>
</svg>
