<?xml version="1.0" encoding="UTF-8" standalone="no"?>
<!-- Generator: Adobe Illustrator 19.0.0, SVG Export Plug-In . SVG Version: 6.00 Build 0)  -->

<svg
   version="1.1"
   id="Capa_1"
   x="0px"
   y="0px"
   viewBox="0 0 512 512"
   style="enable-background:new 0 0 512 512;"
   xml:space="preserve"
   sodipodi:docname="coffee-cup.svg"
   inkscape:version="1.2 (dc2aedaf03, 2022-05-15)"
   xmlns:inkscape="http://www.inkscape.org/namespaces/inkscape"
   xmlns:sodipodi="http://sodipodi.sourceforge.net/DTD/sodipodi-0.dtd"
   xmlns="http://www.w3.org/2000/svg"
   xmlns:svg="http://www.w3.org/2000/svg"><defs
   id="defs154" /><sodipodi:namedview
   id="namedview152"
   pagecolor="#ffffff"
   bordercolor="#000000"
   borderopacity="0.25"
   inkscape:showpageshadow="2"
   inkscape:pageopacity="0.0"
   inkscape:pagecheckerboard="0"
   inkscape:deskcolor="#d1d1d1"
   showgrid="false"
   inkscape:zoom="0.4609375"
   inkscape:cx="256"
   inkscape:cy="405.69492"
   inkscape:window-width="1280"
   inkscape:window-height="961"
   inkscape:window-x="-8"
   inkscape:window-y="-8"
   inkscape:window-maximized="1"
   inkscape:current-layer="Capa_1" />
<g
   style="fill:#dddddd"
   id="g83"
   transform="matrix(0.42372906,0,0,0.42372906,147.52536,147.52526)">
	<g
   id="g81">
		<path
   d="m 502,206.5 h -82 v -21.167 c 0,-5.523 -4.478,-10 -10,-10 H 194 c -5.522,0 -10,4.477 -10,10 0,5.523 4.478,10 10,10 h 206 v 76.666 c 0,67.348 -35.957,129.942 -94.018,164 H 114.018 C 55.957,401.942 20,339.347 20,272 v -76.666 h 67 c 5.522,0 10,-4.477 10,-10 0,-5.523 -4.478,-10 -10,-10 H 10 c -5.522,0 -10,4.477 -10,10 V 272 c 0,37.8 10.16,74.864 29.382,107.183 12.963,21.797 29.783,41.045 49.48,56.817 H 10 c -5.522,0 -10,4.477 -10,10 0,36.393 29.607,66 66,66 h 312 c 36.393,0 66,-29.607 66,-66 0,-5.523 -4.478,-10 -10,-10 h -92.862 c 18.129,-14.516 33.812,-31.983 46.302,-51.667 h 28.227 C 468.785,384.333 512,341.118 512,288 v -71.5 c 0,-5.523 -4.477,-10 -10,-10 z M 422.905,456 C 418.327,476.572 399.931,492 378,492 H 66 C 44.069,492 25.674,476.572 21.095,456 h 90.244 197.322 z M 420,272 v -5.5 h 32 V 288 c 0,20.034 -16.299,36.333 -36.333,36.333 h -2.271 C 417.761,307.327 420,289.745 420,272 Z m 72,16 c 0,42.09 -34.243,76.333 -76.333,76.333 h -17.02 c 3.193,-6.521 6.045,-13.197 8.537,-20 h 8.483 C 446.73,344.333 472,319.062 472,288 v -31.5 c 0,-5.523 -4.478,-10 -10,-10 h -42 v -20 h 72 z"
   id="path79" />
	</g>
</g>
<g
   style="fill:#ffffff"
   id="g89"
   transform="matrix(0.42372906,0,0,0.42372906,147.52536,147.52526)">
	<g
   id="g87">
		<path
   d="m 219.549,55.343 -5.203,-6.533 c -7.638,-9.588 -7.649,-22.991 -0.027,-32.593 3.434,-4.326 2.71,-10.616 -1.616,-14.049 -4.327,-3.435 -10.616,-2.71 -14.05,1.616 -13.442,16.936 -13.422,40.575 0.049,57.487 l 5.203,6.533 c 9.981,12.53 9.996,30.045 0.036,42.594 l -5.332,6.718 c -3.434,4.326 -2.71,10.616 1.616,14.049 1.839,1.459 4.032,2.168 6.21,2.168 2.946,0 5.865,-1.296 7.84,-3.784 l 5.332,-6.718 c 15.78,-19.882 15.757,-47.634 -0.058,-67.488 z"
   id="path85" />
	</g>
</g>
<g
   style="fill:#ffffff"
   id="g95"
   transform="matrix(0.42372906,0,0,0.42372906,147.52536,147.52526)">
	<g
   id="g93">
		<path
   d="m 274.978,77.827 -5.203,-6.532 c -7.638,-9.589 -7.649,-22.992 -0.027,-32.594 3.434,-4.326 2.71,-10.616 -1.616,-14.049 -4.327,-3.435 -10.616,-2.71 -14.05,1.616 -13.442,16.936 -13.422,40.575 0.049,57.488 l 5.203,6.533 c 9.98,12.531 9.995,30.047 0.035,42.595 l -5.331,6.717 c -3.434,4.326 -2.71,10.616 1.616,14.049 1.839,1.459 4.032,2.167 6.21,2.167 2.946,0 5.866,-1.297 7.84,-3.784 l 5.33,-6.717 c 15.781,-19.881 15.758,-47.633 -0.056,-67.489 z"
   id="path91" />
	</g>
</g>
<g
   style="fill:#ffffff"
   id="g101"
   transform="matrix(0.42372906,0,0,0.42372906,147.52536,147.52526)">
	<g
   id="g99">
		<path
   d="m 164.12,77.828 -5.203,-6.532 c -7.638,-9.588 -7.649,-22.992 -0.028,-32.594 3.434,-4.326 2.71,-10.616 -1.616,-14.05 -4.327,-3.434 -10.616,-2.708 -14.05,1.616 -13.441,16.936 -13.421,40.576 0.05,57.488 l 5.203,6.533 c 9.98,12.531 9.995,30.047 0.036,42.594 l -5.332,6.717 c -3.434,4.326 -2.711,10.616 1.615,14.05 1.839,1.459 4.031,2.168 6.21,2.168 2.946,0 5.865,-1.296 7.839,-3.783 l 5.333,-6.718 c 15.78,-19.881 15.757,-47.633 -0.057,-67.489 z"
   id="path97" />
	</g>
</g>
<g
   style="fill:#ffffff"
   id="g107"
   transform="matrix(0.42372906,0,0,0.42372906,147.52536,147.52526)">
	<g
   id="g105">
		<path
   d="m 150.28,178.26 c -1.86,-1.86 -4.44,-2.93 -7.07,-2.93 -2.63,0 -5.21,1.07 -7.07,2.93 -1.859,1.87 -2.93,4.44 -2.93,7.07 0,2.63 1.07,5.21 2.93,7.08 1.86,1.86 4.44,2.92 7.07,2.92 2.63,0 5.21,-1.06 7.07,-2.92 1.869,-1.87 2.93,-4.44 2.93,-7.08 0,-2.63 -1.061,-5.21 -2.93,-7.07 z"
   id="path103" />
	</g>
</g>
<g
   style="fill:#ffffff"
   id="g113"
   transform="matrix(0.42372906,0,0,0.42372906,147.52536,147.52526)">
	<g
   id="g111">
		<path
   d="m 362,262 c -5.522,0 -10,4.477 -10,10 0,37.119 -15.056,73.598 -41.308,100.083 -3.888,3.922 -3.859,10.254 0.063,14.142 1.95,1.933 4.495,2.898 7.04,2.898 2.574,-10e-4 5.148,-0.989 7.103,-2.962 C 354.832,355.961 372,314.351 372,272 c 0,-5.523 -4.478,-10 -10,-10 z"
   id="path109" />
	</g>
</g>
<g
   style="fill:#ffffff"
   id="g119"
   transform="matrix(0.42372906,0,0,0.42372906,147.52536,147.52526)">
	<g
   id="g117">
		<path
   d="m 293.885,399.225 c -2.714,-4.811 -8.813,-6.51 -13.623,-3.797 l -0.228,0.129 c -4.811,2.714 -6.51,8.813 -3.797,13.623 1.838,3.258 5.227,5.089 8.719,5.089 1.664,0 3.352,-0.417 4.904,-1.292 l 0.228,-0.129 c 4.811,-2.714 6.51,-8.813 3.797,-13.623 z"
   id="path115" />
	</g>
</g>
<g
   id="g121">
</g>
<g
   id="g123">
</g>
<g
   id="g125">
</g>
<g
   id="g127">
</g>
<g
   id="g129">
</g>
<g
   id="g131">
</g>
<g
   id="g133">
</g>
<g
   id="g135">
</g>
<g
   id="g137">
</g>
<g
   id="g139">
</g>
<g
   id="g141">
</g>
<g
   id="g143">
</g>
<g
   id="g145">
</g>
<g
   id="g147">
</g>
<g
   id="g149">
</g>
</svg>
